<svg role="img" aria-label="Icon Dark Mode" fill="var(--color-secondary)" xmlns="http://www.w3.org/2000/svg" viewBox="0 0 64 64" width="25" height="25"><path d="M63.437 38.46a1 1 0 0 0-1.227.292c-1.28 1.665-2.945 3.2-4.95 4.562-11.618 7.881-27.545 4.925-35.497-6.595-7.816-11.32-4.99-26.974 6.296-34.894a1 1 0 0 0-.722-1.808c-4.648.696-9.207 2.49-13.188 5.19-7.178 4.869-12.007 12.22-13.596 20.7-1.582 8.442.24 16.994 5.13 24.08 6.288 9.106 16.487 14.006 26.856 14.006a32.49 32.49 0 0 0 18.294-5.616c6.58-4.462 11.246-11.13 13.14-18.776a1 1 0 0 0-.536-1.14zM49.71 56.723c-13.871 9.41-32.885 5.883-42.38-7.872-4.586-6.642-6.295-14.66-4.812-22.574 1.49-7.952 6.02-14.847 12.754-19.415a30.468 30.468 0 0 1 8.365-3.973c-9.392 9.07-11.142 23.926-3.52 34.967 8.573 12.42 25.741 15.61 38.266 7.114.826-.561 1.6-1.15 2.318-1.765-2.22 5.443-6.024 10.15-10.991 13.518z"></path></svg>